<svg width="21" height="39" viewBox="0 0 21 39" fill="none" xmlns="http://www.w3.org/2000/svg">
<path d="M4.24006 19.775H0.0600586V13.895C0.260059 13.885 0.48006 13.855 0.69006 13.855C6.89006 13.855 13.0801 13.855 19.2801 13.845C19.7801 13.845 19.9601 13.965 19.9501 14.495C19.9201 16.055 19.9401 17.615 19.9401 19.175C19.9401 19.355 19.9201 19.535 19.9001 19.765H12.5801C12.5801 20.005 12.5801 20.195 12.5801 20.395C12.5801 23.495 12.5801 26.595 12.5801 29.695C12.5801 30.105 12.6201 30.515 12.7101 30.915C12.9601 32.035 13.6901 32.705 14.8001 32.905C16.2601 33.165 17.6601 32.995 18.9601 32.245C19.1001 32.165 19.2401 32.095 19.4301 31.985C19.7001 33.595 19.9501 35.145 20.2201 36.695C20.2901 37.065 20.0801 37.205 19.8201 37.355C17.7601 38.505 15.5301 38.945 13.2001 38.925C11.5701 38.905 9.97006 38.745 8.44006 38.135C5.97006 37.145 4.66006 35.255 4.37006 32.665C4.22006 31.345 4.24006 30.005 4.23006 28.675C4.21006 25.965 4.23006 23.255 4.23006 20.545C4.23006 20.325 4.23006 20.095 4.23006 19.785L4.24006 19.775Z" fill="white"/>
<path d="M4.37 8.09503C4.37 7.39503 4.36 6.69503 4.37 6.00503C4.42 3.42503 6.38 1.17503 8.82 0.895027C11.55 0.575027 13.99 2.18503 14.68 4.77503C15.57 8.06503 13.04 11.355 9.63 11.365C8.13 11.365 6.63 11.345 5.14 11.375C4.56 11.385 4.33 11.235 4.36 10.625C4.4 9.78503 4.37 8.94503 4.37 8.10503V8.09503Z" fill="url(#paint0_linear_2525_11801)"/>
<defs>
<linearGradient id="paint0_linear_2525_11801" x1="4.36" y1="6.10503" x2="14.86" y2="6.10503" gradientUnits="userSpaceOnUse">
<stop stop-color="#F8B145"/>
<stop offset="1" stop-color="#FB354C"/>
</linearGradient>
</defs>
</svg>
