<svg width="64" height="64" viewBox="0 0 64 64" fill="none" xmlns="http://www.w3.org/2000/svg">
<path d="M52.28 0.715027H12.04C5.71083 0.715027 0.580017 5.84584 0.580017 12.175V51.575C0.580017 57.9042 5.71083 63.035 12.04 63.035H52.28C58.6092 63.035 63.74 57.9042 63.74 51.575V12.175C63.74 5.84584 58.6092 0.715027 52.28 0.715027Z" fill="black"/>
<path d="M25.2401 31.775H21.0601V25.895C21.2601 25.885 21.4801 25.855 21.6901 25.855C27.8901 25.855 34.0801 25.855 40.2801 25.845C40.7801 25.845 40.9601 25.965 40.9501 26.495C40.9201 28.055 40.9401 29.615 40.9401 31.175C40.9401 31.355 40.9201 31.535 40.9001 31.765H33.5801C33.5801 32.005 33.5801 32.195 33.5801 32.395C33.5801 35.495 33.5801 38.595 33.5801 41.695C33.5801 42.105 33.6201 42.515 33.7101 42.915C33.9601 44.035 34.6901 44.705 35.8001 44.905C37.2601 45.165 38.6601 44.995 39.9601 44.245C40.1001 44.165 40.2401 44.095 40.4301 43.985C40.7001 45.595 40.9501 47.145 41.2201 48.695C41.2901 49.065 41.0801 49.205 40.8201 49.355C38.7601 50.505 36.5301 50.945 34.2001 50.925C32.5701 50.905 30.9701 50.745 29.4401 50.135C26.9701 49.145 25.6601 47.255 25.3701 44.665C25.2201 43.345 25.2401 42.005 25.2301 40.675C25.2101 37.965 25.2301 35.255 25.2301 32.545C25.2301 32.325 25.2301 32.095 25.2301 31.785L25.2401 31.775Z" fill="white"/>
<path d="M25.37 20.095C25.37 19.395 25.36 18.695 25.37 18.005C25.42 15.425 27.38 13.175 29.82 12.895C32.55 12.575 34.99 14.185 35.68 16.775C36.57 20.065 34.04 23.355 30.63 23.365C29.13 23.365 27.63 23.345 26.14 23.375C25.56 23.385 25.33 23.235 25.36 22.625C25.4 21.785 25.37 20.945 25.37 20.105V20.095Z" fill="url(#paint0_linear_2525_11799)"/>
<defs>
<linearGradient id="paint0_linear_2525_11799" x1="25.36" y1="18.105" x2="35.86" y2="18.105" gradientUnits="userSpaceOnUse">
<stop stop-color="#F8B145"/>
<stop offset="1" stop-color="#FB354C"/>
</linearGradient>
</defs>
</svg>
